<?xml version="1.0" encoding="UTF-8"?>
<svg id="rouge" xmlns="http://www.w3.org/2000/svg" version="1.1" viewBox="0 0 510.2 510.2">
  <!-- Generator: Adobe Illustrator 30.0.0, SVG Export Plug-In . SVG Version: 2.1.1 Build 123)  -->
  <defs>
    <style>
      .st0 {
        fill: #20a4da;
      }

      .st1 {
        fill: #702d82;
      }

      .st2 {
        fill: #7ab84b;
      }

      .st3 {
        fill: #fcd22a;
      }

      .st4 {
        fill: #bab8b7;
      }

      .st5 {
        fill: #da302d;
      }
    </style>
  </defs>
  <path class="st4" d="M352.3,320.4c-5.7-5.9-12.3-10.5-19.6-13.9-7.4-3.4-15.2-5.1-23.5-5.1s-16.8,1.9-24.4,5.6c-7.6,3.7-14.2,8.8-20,15.3-5.7,6.5-10.2,14.1-13.6,22.7-3.3,8.7-5,18-5,27.9s1.6,19,4.8,27.7c3.2,8.7,7.5,16.4,13.1,23,5.6,6.6,12.2,11.8,19.8,15.7,7.7,3.9,16,5.8,25.2,5.8s16.1-1.7,23.2-5c7.1-3.3,13.6-7.9,19.5-13.8l6.5,6.5c-6.5,7-13.9,12.4-22.3,16.4-8.4,4-17.3,5.9-26.9,5.9s-18.8-2.2-27.5-6.5c-8.7-4.3-16.5-10.2-23.2-17.6-6.7-7.4-12.1-16.1-16.1-26.1-4-10-6-20.6-6-31.9s1.9-21.1,5.7-31c3.8-9.8,9-18.5,15.5-25.9,6.6-7.4,14.3-13.3,23.1-17.8s18.3-6.6,28.5-6.6,18.7,2,27.3,5.9c8.6,3.9,16,9.4,22.4,16.4l-6.2,6.8-.3-.3h0Z"/>
  <path class="st4" d="M154.4,452.9h-9.8l-.2-160.3h9.8l.2,160.3Z"/>
  <path class="st4" d="M284,259.7c-5.7-5.9-12.3-10.5-19.6-13.9-7.4-3.4-15.2-5.1-23.6-5.1s-16.8,1.9-24.4,5.6c-7.6,3.7-14.2,8.8-20,15.3-5.7,6.5-10.2,14.1-13.6,22.7-3.3,8.7-5,18-5,27.8s1.6,19,4.8,27.7c3.2,8.7,7.5,16.4,13.1,23,5.6,6.6,12.2,11.8,19.8,15.7,7.7,3.9,16.1,5.8,25.2,5.8s16.1-1.7,23.2-5c7.1-3.3,13.6-7.9,19.5-13.8l6.5,6.5c-6.5,7-13.9,12.4-22.3,16.4-8.4,3.9-17.3,5.9-26.9,5.9s-18.8-2.2-27.5-6.5-16.5-10.2-23.2-17.6c-6.7-7.4-12.1-16.1-16.1-26.1s-6-20.6-6-31.9,1.9-21.1,5.7-31c3.8-9.8,9-18.5,15.6-25.9,6.6-7.4,14.3-13.3,23.1-17.8s18.3-6.6,28.5-6.6,18.7,2,27.3,5.9c8.6,3.9,16,9.4,22.4,16.4l-6.2,6.8-.3-.3h0Z"/>
  <path class="st2" d="M208.9,122.4l7.4-8.1s46.4,94.9-10,194.7c0,.1-.1.2-.1.2-.3-.1-.9-.2-1.1-.3,0,0,48.8-92.7,3.9-186.5h0Z"/>
  <path class="st3" d="M231.4,203.3l12.1,16.6s1.8-90.2,163.4-100.8l2.2-2.2s-149.4-12.5-177.7,86.5h0Z"/>
  <path class="st1" d="M229.6,161.7s24-75.5,216.1-58.2c0,0,15.7-23.1,43.7-36.8,0,0-237.7-1.5-260.9,91.3l1.1,3.7h0Z"/>
  <path class="st0" d="M210.4,204.8l7-6.3s-23-89.5-93.7-115.9l.5,1.2s65.2,32.8,86.2,121h0Z"/>
  <path class="st5" d="M105.9,55.3l10.1,18.9s70,11.5,100.2,85.2c0,0,0,0,.2-.2,1.6-2.4-28.8-85.1-110.5-103.8Z"/>
</svg>